# xmcd CD database file
#
# Track frame offsets:
#	150
#	26029
#	60082
#	87431
#	119628
#	153967
#	199453
#	230867
#	257466
#
# Disc length: 4173 seconds
#
# Revision: 1
# Processed by: cddbd v1.5.2PL0 Copyright (c) Steve Scherf et al.
# Submitted via: CDex 1.70beta2
#
DISCID=77104b09
DTITLE=Bobby Previte - Mass
DYEAR=2016
DGENRE=Jazz
TTITLE0=Introit
TTITLE1=Kyrie
TTITLE2=Gloria
TTITLE3=Alleluja
TTITLE4=Credo
TTITLE5=Offerings
TTITLE6=Sanctus
TTITLE7=Agnus Dei
TTITLE8=Communian
EXTD=YEAR: 2016
EXTT0=
EXTT1=
EXTT2=
EXTT3=
EXTT4=
EXTT5=
EXTT6=
EXTT7=
EXTT8=
PLAYORDER=
